# xmcd
#
# Track frame offsets: 
#        150
#        13589
#        38327
#        55066
#        77163
#        97228
#        110557
#        130202
#        144131
#        162562
#
# Disc length: 2411 seconds
#
# Revision: 1
# Processed by: cddbd v1.5.2PL0 Copyright (c) Steve Scherf et al.
# Submitted via: ExactAudioCopyFreeDBPlugin 1.0
#
DISCID=7c09690a
DTITLE=Clutch - Basket Of Eggs
DYEAR=2011
DGENRE=Blues
TTITLE0=Box Car Shorty's Confession (acoustic)
TTITLE1=The Regulator (acoustic)
TTITLE2=Basket Of Eggs (acoustic)
TTITLE3=Tight Like That (acoustic)
TTITLE4=Drink To The Dead  (Live Acoustic)
TTITLE5=Cattle Car (Polar Bear Lair demo)
TTITLE6=Walpole Man (Polar Bear Lair demo)
TTITLE7=Promoter (Polar Bear Lair demo)
TTITLE8=La Curandera (Polar Bear Lair demo)
TTITLE9=Steve Doocy (Polar Bear Lair demo)
EXTD=
EXTT0=
EXTT1=
EXTT2=
EXTT3=
EXTT4=
EXTT5=
EXTT6=
EXTT7=
EXTT8=
EXTT9=
PLAYORDER=
